<svg xmlns="http://www.w3.org/2000/svg" width="154.608" height="152.815" viewBox="0 0 154.608 152.815"><defs><style>.a{fill:#ed3237;}</style></defs><g transform="translate(-1 -1)"><path class="a" d="M23,52h4.987v4.987H23Z" transform="translate(32.861 76.178)"/><path class="a" d="M23,48h4.987v4.987H23Z" transform="translate(32.861 70.203)"/><path class="a" d="M67.413,40.972,62.924,41l-1.5-4.459-1.4-.289a12.069,12.069,0,0,0-4.947,0l-1.411.292L52.2,41l-4.773-.02-.711,1.307a15.072,15.072,0,0,0-1.613,5.2L44.945,48.9l3.908,2.943-1.5,4.783.938,1.055a12.574,12.574,0,0,0,3.985,3.012l1.367.653,3.908-2.95,3.91,2.948,1.367-.653a12.5,12.5,0,0,0,3.985-3.012l.938-1.055-1.5-4.783L70.159,48.9,70,47.488a14.708,14.708,0,0,0-1.878-5.2Zm-6.972,9L62.107,55.3c-.06.05-.125.1-.19.147l-4.366-3.289-4.366,3.289c-.065-.047-.13-.1-.19-.147l1.666-5.322L50.314,46.7c.065-.244.14-.486.219-.723L55.8,46l1.651-5.015c.07,0,.14,0,.209,0l1.691,5.032,5.047-.037c.12.272.227.531.314.778Z" transform="translate(65.64 52.279)"/><path class="a" d="M63.443,32A22.443,22.443,0,1,0,85.886,54.443,22.469,22.469,0,0,0,63.443,32Zm0,39.9A17.456,17.456,0,1,1,80.9,54.443,17.477,17.477,0,0,1,63.443,71.9Z" transform="translate(59.747 46.304)"/><path class="a" d="M123.191,68.329a32.462,32.462,0,0,0-29.814,19.7A27.026,27.026,0,0,0,89.64,85.94c.162-.185.3-.359.476-.559a9.56,9.56,0,0,0-.007-14.192c-1.142-1.234-1.83-1.98-1.83-3.706s.688-2.471,1.83-3.706a9.544,9.544,0,0,0,0-14.184c-1.142-1.237-1.83-1.985-1.83-3.708V33.809a32.809,32.809,0,0,0-58.43-20.5l-.372.464a15.643,15.643,0,0,0-11.022,14.96V45.886c0,1.723-.688,2.471-1.83,3.708a9.544,9.544,0,0,0,0,14.184c1.142,1.234,1.83,1.982,1.83,3.706s-.688,2.471-1.83,3.706a9.563,9.563,0,0,0-.01,14.192c.182.2.317.374.479.559A27.474,27.474,0,0,0,1,110.909V143.14h99.747v10.675l22.443-5.611,22.443,5.611v-29.73a32.38,32.38,0,0,0-22.443-55.756Zm-102.9,6.247a9.544,9.544,0,0,0,0-14.184c-1.142-1.234-1.83-1.982-1.83-3.706s.688-2.471,1.83-3.708a9.659,9.659,0,0,0,3.157-7.092V28.737a10.66,10.66,0,0,1,8.085-10.356l.818-.2,1.4-1.748A27.822,27.822,0,0,1,83.292,33.809V45.886a9.659,9.659,0,0,0,3.157,7.092c1.142,1.237,1.83,1.985,1.83,3.708s-.688,2.471-1.83,3.706a9.544,9.544,0,0,0,0,14.184c1.142,1.234,1.83,1.982,1.83,3.706s-.688,2.484-1.83,3.726A16.342,16.342,0,0,0,84.765,84.1L66.671,77.713a4.959,4.959,0,0,1-3.257-4.249A35.247,35.247,0,0,0,78.3,44.672V33.418H71.427a22.891,22.891,0,0,1-16.3-6.75L53.367,24.9,51.6,26.667a22.891,22.891,0,0,1-16.3,6.75H28.431V44.672A35.255,35.255,0,0,0,43.32,73.466a4.966,4.966,0,0,1-3.257,4.249L21.969,84.1a16.131,16.131,0,0,0-1.683-2.092c-1.142-1.244-1.83-1.995-1.83-3.728S19.144,75.811,20.286,74.576Zm33.081,33.288a47.343,47.343,0,0,1-4.182-4.456l4.182-5.853,4.182,5.853A47.344,47.344,0,0,1,53.367,107.864Zm0-34.695a30.287,30.287,0,0,1-19.949-28.5V38.405h1.89a27.814,27.814,0,0,0,18.059-6.591,27.819,27.819,0,0,0,18.059,6.591h1.89v6.267a30.287,30.287,0,0,1-19.949,28.5Zm-.788,5.007.788.262.788-.262a35.748,35.748,0,0,0,4.731-1.982,10.025,10.025,0,0,0,1.229,2.456L53.367,88.77,46.619,78.646a9.914,9.914,0,0,0,1.227-2.454,35.327,35.327,0,0,0,4.733,1.985ZM41.724,82.416a10.446,10.446,0,0,0,1.092-.484L50.34,93.216l-4.252,5.952a47.5,47.5,0,0,1-6.6-15.962ZM60.649,99.171,56.4,93.219l7.523-11.284a10.18,10.18,0,0,0,1.09.484l2.242.79A47.5,47.5,0,0,1,60.649,99.171ZM5.987,110.909A22.475,22.475,0,0,1,20.962,89.745L34.745,84.88a52.5,52.5,0,0,0,14.93,26.343l-3.788,3.366v23.563H25.937V103.241H20.949v34.912H5.987Zm79.8,27.243V105.735H80.8v32.418H50.874V116.829l4.865-4.327A52.5,52.5,0,0,0,71.99,84.88l13.783,4.865a22.2,22.2,0,0,1,5.98,3.234,32.059,32.059,0,0,0,8.995,31.106v14.067Zm54.861,9.274-17.456-4.364-17.456,4.364V128.021a32.187,32.187,0,0,0,34.912,0Zm-17.456-19.249a27.431,27.431,0,1,1,27.431-27.431A27.463,27.463,0,0,1,123.191,128.178Z" transform="translate(0 0)"/><path class="a" d="M92.861,1H45.481A7.49,7.49,0,0,0,38,8.481V40.9a7.49,7.49,0,0,0,7.481,7.481H60.443v7.6a7.367,7.367,0,0,0,13.5,4.087L81.727,48.38H92.861a7.49,7.49,0,0,0,7.481-7.481V8.481A7.49,7.49,0,0,0,92.861,1Zm2.494,39.9a2.5,2.5,0,0,1-2.494,2.494h-13.8l-9.269,13.9a2.379,2.379,0,0,1-4.359-1.319V43.393H45.481A2.5,2.5,0,0,1,42.987,40.9V8.481a2.5,2.5,0,0,1,2.494-2.494h47.38a2.5,2.5,0,0,1,2.494,2.494Z" transform="translate(55.266)"/><path class="a" d="M54.537,23.479l-5.718-5.718-3.526,3.526,9.244,9.244L76.25,8.819,72.724,5.293Z" transform="translate(66.16 6.412)"/></g></svg>